<svg version="1.1" xmlns="http://www.w3.org/2000/svg" xmlns:xlink="http://www.w3.org/1999/xlink" x="0px" y="0px" width="360px"
	 height="55px" viewBox="0 0 360 55" style="overflow:visible;enable-background:new 0 0 360 55;" xml:space="preserve">
<style type="text/css">
	.st0{fill:none;}
	.st1{fill:#376621;}
</style>
<defs>
</defs>
<g>
	<rect class="st0" width="360" height="55"/>
	<g>
		<g>
			<path class="st1" d="M69,19.89c-0.95-1-2.08-1.77-3.38-2.33c-1.31-0.55-2.81-0.83-4.5-0.83c-1.74,0-3.31,0.32-4.71,0.96
				c-1.4,0.64-2.58,1.5-3.56,2.59c-0.97,1.09-1.72,2.35-2.25,3.78c-0.53,1.43-0.79,2.94-0.79,4.53c0,1.59,0.26,3.1,0.79,4.53
				c0.53,1.43,1.28,2.69,2.25,3.76c0.97,1.08,2.16,1.93,3.56,2.57c1.4,0.64,2.97,0.96,4.71,0.96c1.54,0,2.95-0.17,4.23-0.5
				c1.28-0.33,2.32-0.76,3.12-1.27v-8.27h-6.35v-2.46h9.12v12.3c-1.49,0.9-3.09,1.57-4.81,2s-3.5,0.66-5.35,0.66
				c-2.05,0-3.95-0.36-5.69-1.08c-1.74-0.72-3.24-1.71-4.5-2.98c-1.26-1.27-2.24-2.78-2.94-4.52c-0.71-1.74-1.06-3.65-1.06-5.73
				c0-2.08,0.36-3.99,1.08-5.73c0.72-1.74,1.71-3.25,2.98-4.52c1.27-1.27,2.77-2.26,4.5-2.98s3.61-1.08,5.63-1.08
				c2.18,0,4.08,0.33,5.69,0.98c1.62,0.65,3,1.56,4.15,2.72L69,19.89z"/>
			<path class="st1" d="M93.73,33.2c0,1.36-0.24,2.62-0.71,3.77c-0.47,1.15-1.13,2.15-1.98,3c-0.85,0.85-1.86,1.51-3.04,1.98
				c-1.18,0.47-2.47,0.71-3.88,0.71c-1.38,0-2.67-0.24-3.85-0.71c-1.18-0.47-2.19-1.13-3.04-1.98c-0.85-0.85-1.51-1.85-1.98-3
				c-0.47-1.15-0.71-2.41-0.71-3.77c0-1.36,0.24-2.62,0.71-3.77c0.47-1.15,1.13-2.15,1.98-3s1.86-1.51,3.04-1.98
				c1.18-0.47,2.46-0.71,3.85-0.71c1.41,0,2.71,0.24,3.88,0.71c1.18,0.48,2.19,1.13,3.04,1.98s1.51,1.85,1.98,3
				C93.49,30.58,93.73,31.84,93.73,33.2z M90.96,33.2c0-1-0.16-1.94-0.48-2.83c-0.32-0.88-0.78-1.65-1.37-2.31s-1.31-1.17-2.15-1.56
				c-0.85-0.38-1.79-0.58-2.85-0.58s-1.99,0.19-2.83,0.58c-0.83,0.38-1.54,0.9-2.13,1.56s-1.04,1.42-1.37,2.31
				c-0.32,0.88-0.48,1.83-0.48,2.83s0.16,1.94,0.48,2.83c0.32,0.88,0.78,1.65,1.37,2.31s1.3,1.17,2.13,1.54
				c0.83,0.37,1.78,0.56,2.83,0.56s2-0.19,2.85-0.56s1.56-0.88,2.15-1.54s1.04-1.42,1.37-2.31C90.8,35.14,90.96,34.2,90.96,33.2z"/>
			<path class="st1" d="M115.69,33.2c0,1.36-0.24,2.62-0.71,3.77c-0.47,1.15-1.13,2.15-1.98,3c-0.85,0.85-1.86,1.51-3.04,1.98
				c-1.18,0.47-2.47,0.71-3.88,0.71c-1.38,0-2.67-0.24-3.85-0.71c-1.18-0.47-2.19-1.13-3.04-1.98c-0.85-0.85-1.51-1.85-1.98-3
				c-0.47-1.15-0.71-2.41-0.71-3.77c0-1.36,0.24-2.62,0.71-3.77c0.47-1.15,1.13-2.15,1.98-3s1.86-1.51,3.04-1.98
				c1.18-0.47,2.46-0.71,3.85-0.71c1.41,0,2.71,0.24,3.88,0.71c1.18,0.48,2.19,1.13,3.04,1.98s1.51,1.85,1.98,3
				C115.45,30.58,115.69,31.84,115.69,33.2z M112.92,33.2c0-1-0.16-1.94-0.48-2.83c-0.32-0.88-0.78-1.65-1.37-2.31
				s-1.31-1.17-2.15-1.56c-0.85-0.38-1.79-0.58-2.85-0.58s-1.99,0.19-2.83,0.58c-0.83,0.38-1.54,0.9-2.13,1.56s-1.04,1.42-1.37,2.31
				c-0.32,0.88-0.48,1.83-0.48,2.83s0.16,1.94,0.48,2.83c0.32,0.88,0.78,1.65,1.37,2.31s1.3,1.17,2.13,1.54
				c0.83,0.37,1.78,0.56,2.83,0.56s2-0.19,2.85-0.56s1.56-0.88,2.15-1.54s1.04-1.42,1.37-2.31C112.76,35.14,112.92,34.2,112.92,33.2
				z"/>
			<path class="st1" d="M134.58,39.16c-0.77,1.15-1.77,2.03-3,2.62c-1.23,0.59-2.5,0.88-3.81,0.88c-1.41,0-2.69-0.24-3.83-0.73
				c-1.14-0.49-2.12-1.15-2.92-2s-1.44-1.85-1.88-3s-0.67-2.4-0.67-3.73c0-1.33,0.22-2.58,0.67-3.73s1.08-2.15,1.88-3
				s1.78-1.51,2.92-2c1.14-0.49,2.42-0.73,3.83-0.73c1.31,0,2.58,0.3,3.81,0.9c1.23,0.6,2.23,1.49,3,2.67h0.08V13.12h2.62V42.2
				h-2.62v-3.04H134.58z M121.23,33.2c0,1,0.15,1.94,0.46,2.83c0.31,0.88,0.75,1.65,1.33,2.31c0.58,0.65,1.29,1.17,2.13,1.54
				s1.81,0.56,2.88,0.56c1,0,1.92-0.19,2.77-0.56s1.58-0.88,2.19-1.52c0.62-0.64,1.1-1.4,1.44-2.29c0.35-0.88,0.52-1.84,0.52-2.87
				c0-1.02-0.17-1.98-0.52-2.87s-0.83-1.65-1.44-2.31c-0.62-0.65-1.35-1.17-2.19-1.54c-0.85-0.37-1.77-0.56-2.77-0.56
				c-1.08,0-2.04,0.19-2.88,0.58c-0.85,0.38-1.56,0.9-2.13,1.56c-0.58,0.65-1.02,1.42-1.33,2.31
				C121.38,31.25,121.23,32.2,121.23,33.2z"/>
			<path class="st1" d="M152.96,27.2H153l12.96-12.23h3.96l-13.73,12.35l14.5,14.88h-4.08L153,27.7h-0.04v14.5h-2.77V14.97h2.77
				V27.2z"/>
			<path class="st1" d="M175.84,17.27c0,0.54-0.19,0.98-0.58,1.33c-0.38,0.35-0.81,0.52-1.27,0.52s-0.88-0.17-1.27-0.52
				c-0.38-0.35-0.58-0.79-0.58-1.33s0.19-0.98,0.58-1.33c0.38-0.35,0.81-0.52,1.27-0.52s0.88,0.17,1.27,0.52
				C175.65,16.29,175.84,16.74,175.84,17.27z M175.31,42.2h-2.62v-18h2.62V42.2z"/>
			<path class="st1" d="M190.38,26.39h-5.08v10.5c0,0.67,0.06,1.22,0.19,1.65c0.13,0.44,0.31,0.78,0.56,1.02
				c0.24,0.24,0.53,0.41,0.87,0.5c0.33,0.09,0.69,0.13,1.08,0.13c0.36,0,0.74-0.05,1.13-0.15c0.4-0.1,0.78-0.24,1.13-0.42l0.12,2.27
				c-0.46,0.18-0.94,0.31-1.44,0.4c-0.5,0.09-1.04,0.13-1.63,0.13c-0.49,0-1-0.06-1.54-0.19c-0.54-0.13-1.04-0.37-1.5-0.73
				c-0.46-0.36-0.84-0.85-1.13-1.46s-0.44-1.42-0.44-2.42V26.39h-3.73V24.2h3.73v-5.08h2.62v5.08h5.08V26.39z"/>
			<path class="st1" d="M206.65,28.31c-0.44-0.69-1.07-1.26-1.9-1.71c-0.83-0.45-1.74-0.67-2.71-0.67c-1.05,0-2,0.19-2.85,0.56
				c-0.85,0.37-1.57,0.88-2.17,1.54c-0.6,0.65-1.06,1.42-1.38,2.31c-0.32,0.88-0.48,1.84-0.48,2.87c0,1.03,0.16,1.97,0.48,2.85
				c0.32,0.87,0.78,1.63,1.37,2.29s1.31,1.17,2.15,1.54c0.85,0.37,1.79,0.56,2.85,0.56c1.15,0,2.13-0.22,2.92-0.65s1.45-1,1.96-1.69
				l1.96,1.46c-0.77,0.95-1.71,1.71-2.83,2.27c-1.12,0.56-2.46,0.85-4.02,0.85c-1.46,0-2.78-0.24-3.96-0.71s-2.19-1.13-3.02-1.98
				c-0.83-0.85-1.48-1.85-1.94-3c-0.46-1.15-0.69-2.41-0.69-3.77c0-1.36,0.23-2.62,0.69-3.77c0.46-1.15,1.11-2.15,1.94-3
				c0.83-0.85,1.84-1.51,3.02-1.98c1.18-0.47,2.5-0.71,3.96-0.71c1.21,0,2.43,0.26,3.67,0.79c1.24,0.53,2.25,1.3,3.02,2.33
				L206.65,28.31z"/>
			<path class="st1" d="M214.92,27.16c0.49-1.05,1.29-1.88,2.42-2.5c1.13-0.62,2.33-0.92,3.62-0.92c2.28,0,3.99,0.68,5.13,2.04
				c1.14,1.36,1.71,3.15,1.71,5.38V42.2h-2.62v-9.96c0-0.95-0.08-1.81-0.23-2.58c-0.15-0.77-0.42-1.43-0.79-1.98
				c-0.37-0.55-0.87-0.98-1.5-1.29c-0.63-0.31-1.42-0.46-2.37-0.46c-0.69,0-1.37,0.14-2.02,0.42c-0.65,0.28-1.24,0.71-1.75,1.29
				c-0.51,0.58-0.92,1.31-1.23,2.19s-0.46,1.93-0.46,3.13v9.23h-2.62V13.12h2.62v14.04H214.92z"/>
			<path class="st1" d="M249.42,32.66c0,0.18,0,0.37,0,0.58c0,0.21-0.01,0.42-0.04,0.65h-14.92c0.03,0.9,0.21,1.74,0.54,2.54
				c0.33,0.79,0.79,1.49,1.38,2.08c0.59,0.59,1.28,1.06,2.08,1.4c0.79,0.35,1.65,0.52,2.58,0.52c1.36,0,2.53-0.31,3.52-0.94
				c0.99-0.63,1.74-1.35,2.25-2.17l1.96,1.54c-1.08,1.36-2.26,2.33-3.56,2.92c-1.29,0.59-2.69,0.88-4.17,0.88
				c-1.33,0-2.57-0.24-3.71-0.71c-1.14-0.47-2.12-1.13-2.94-1.98c-0.82-0.85-1.47-1.85-1.94-3c-0.47-1.15-0.71-2.41-0.71-3.77
				c0-1.36,0.23-2.62,0.69-3.77c0.46-1.15,1.1-2.15,1.92-3c0.82-0.85,1.78-1.51,2.88-1.98c1.1-0.47,2.29-0.71,3.58-0.71
				c1.41,0,2.65,0.24,3.73,0.71c1.08,0.48,1.97,1.12,2.69,1.92s1.26,1.75,1.63,2.83C249.23,30.27,249.42,31.43,249.42,32.66z
				 M246.76,31.81c-0.08-1.69-0.62-3.1-1.63-4.21c-1.01-1.12-2.46-1.67-4.33-1.67c-0.87,0-1.68,0.16-2.42,0.48
				c-0.74,0.32-1.4,0.76-1.96,1.31c-0.56,0.55-1.01,1.18-1.35,1.88c-0.33,0.71-0.53,1.44-0.58,2.21H246.76z"/>
			<path class="st1" d="M256.61,24.2c0.05,0.49,0.09,1.03,0.12,1.62s0.04,1.08,0.04,1.46h0.08c0.51-1.05,1.35-1.9,2.5-2.56
				c1.15-0.65,2.37-0.98,3.65-0.98c2.28,0,3.99,0.68,5.13,2.04c1.14,1.36,1.71,3.15,1.71,5.38V42.2h-2.62v-9.96
				c0-0.95-0.08-1.81-0.23-2.58c-0.15-0.77-0.42-1.43-0.79-1.98c-0.37-0.55-0.87-0.98-1.5-1.29s-1.42-0.46-2.37-0.46
				c-0.69,0-1.37,0.14-2.02,0.42c-0.65,0.28-1.24,0.71-1.75,1.29c-0.51,0.58-0.92,1.31-1.23,2.19s-0.46,1.93-0.46,3.13v9.23h-2.62
				V28.16c0-0.49-0.01-1.12-0.04-1.88c-0.03-0.77-0.06-1.46-0.12-2.08H256.61z"/>
			<path class="st1" d="M303.92,37.77c-0.46,0.69-1.02,1.35-1.67,1.96c-0.65,0.62-1.41,1.16-2.27,1.63s-1.81,0.84-2.85,1.11
				c-1.04,0.27-2.17,0.41-3.4,0.41c-2.05,0-3.95-0.36-5.69-1.08c-1.74-0.72-3.24-1.71-4.5-2.98c-1.26-1.27-2.24-2.78-2.94-4.52
				c-0.71-1.74-1.06-3.65-1.06-5.73c0-2.08,0.36-3.99,1.08-5.73c0.72-1.74,1.71-3.25,2.98-4.52c1.27-1.27,2.77-2.26,4.5-2.98
				c1.73-0.72,3.61-1.08,5.63-1.08c1,0,1.98,0.1,2.94,0.31c0.96,0.21,1.87,0.5,2.71,0.88c0.85,0.38,1.62,0.83,2.31,1.36
				c0.69,0.53,1.27,1.13,1.73,1.79l-2.31,1.69c-0.28-0.44-0.66-0.87-1.13-1.31s-1.03-0.82-1.67-1.15c-0.64-0.33-1.34-0.6-2.1-0.81
				c-0.76-0.2-1.57-0.31-2.44-0.31c-1.77,0-3.35,0.32-4.75,0.96c-1.4,0.64-2.58,1.5-3.56,2.59c-0.97,1.09-1.72,2.34-2.23,3.78
				s-0.77,2.94-0.77,4.52c0,1.58,0.26,3.09,0.79,4.52s1.28,2.69,2.25,3.78c0.97,1.09,2.16,1.95,3.56,2.59s2.97,0.96,4.71,0.96
				c1.56,0,3.05-0.32,4.46-0.96c1.41-0.64,2.59-1.67,3.54-3.08L303.92,37.77z"/>
			<path class="st1" d="M319.11,30.55c0-1.55-0.41-2.71-1.23-3.47c-0.82-0.76-2.01-1.15-3.58-1.15c-1.08,0-2.08,0.19-3,0.58
				c-0.92,0.38-1.71,0.9-2.35,1.54l-1.46-1.73c0.74-0.74,1.72-1.36,2.94-1.85c1.22-0.49,2.6-0.73,4.13-0.73
				c0.97,0,1.88,0.13,2.73,0.4c0.85,0.27,1.59,0.67,2.23,1.21c0.64,0.54,1.14,1.22,1.5,2.04c0.36,0.82,0.54,1.78,0.54,2.88v7.88
				c0,0.69,0.02,1.41,0.08,2.15c0.05,0.74,0.13,1.37,0.23,1.88h-2.35c-0.08-0.44-0.14-0.91-0.19-1.42c-0.05-0.51-0.08-1.01-0.08-1.5
				h-0.08c-0.82,1.21-1.75,2.07-2.79,2.6c-1.04,0.53-2.29,0.79-3.75,0.79c-0.69,0-1.4-0.1-2.13-0.29c-0.73-0.19-1.4-0.51-2-0.95
				c-0.6-0.44-1.1-1-1.5-1.7c-0.4-0.69-0.6-1.54-0.6-2.55c0-1.39,0.35-2.49,1.06-3.3s1.65-1.41,2.83-1.81
				c1.18-0.4,2.53-0.66,4.06-0.77c1.53-0.12,3.11-0.17,4.75-0.17V30.55z M318.34,33.2c-1.08,0-2.16,0.04-3.25,0.13
				s-2.08,0.27-2.96,0.54c-0.88,0.27-1.61,0.66-2.17,1.17c-0.56,0.51-0.85,1.19-0.85,2.04c0,0.64,0.12,1.18,0.37,1.62
				c0.24,0.44,0.57,0.79,0.98,1.06c0.41,0.27,0.87,0.46,1.37,0.58c0.5,0.12,1.01,0.17,1.52,0.17c0.92,0,1.74-0.16,2.46-0.48
				c0.72-0.32,1.32-0.76,1.81-1.31c0.49-0.55,0.86-1.19,1.12-1.9c0.26-0.72,0.38-1.47,0.38-2.27V33.2H318.34z"/>
			<path class="st1" d="M335.92,26.39h-4.23V42.2h-2.62V26.39h-3.77V24.2h3.77v-4.92c0-2.05,0.5-3.67,1.5-4.85
				c1-1.18,2.54-1.77,4.62-1.77c0.33,0,0.69,0.02,1.08,0.06s0.74,0.11,1.08,0.21l-0.46,2.31c-0.28-0.08-0.56-0.14-0.85-0.19
				c-0.28-0.05-0.6-0.08-0.96-0.08c-0.69,0-1.26,0.12-1.71,0.35c-0.45,0.23-0.8,0.56-1.04,0.98c-0.24,0.42-0.41,0.92-0.5,1.48
				c-0.09,0.56-0.13,1.17-0.13,1.81v4.62h4.23V26.39z"/>
			<path class="st1" d="M356.03,32.66c0,0.18,0,0.37,0,0.58c0,0.21-0.01,0.42-0.04,0.65h-14.92c0.03,0.9,0.21,1.74,0.54,2.54
				c0.33,0.79,0.79,1.49,1.38,2.08c0.59,0.59,1.28,1.06,2.08,1.4c0.79,0.35,1.65,0.52,2.58,0.52c1.36,0,2.53-0.31,3.52-0.94
				c0.99-0.63,1.74-1.35,2.25-2.17l1.96,1.54c-1.08,1.36-2.26,2.33-3.56,2.92c-1.29,0.59-2.69,0.88-4.17,0.88
				c-1.33,0-2.57-0.24-3.71-0.71c-1.14-0.47-2.12-1.13-2.94-1.98c-0.82-0.85-1.47-1.85-1.94-3c-0.47-1.15-0.71-2.41-0.71-3.77
				c0-1.36,0.23-2.62,0.69-3.77c0.46-1.15,1.1-2.15,1.92-3c0.82-0.85,1.78-1.51,2.88-1.98c1.1-0.47,2.29-0.71,3.58-0.71
				c1.41,0,2.65,0.24,3.73,0.71c1.08,0.48,1.97,1.12,2.69,1.92s1.26,1.75,1.63,2.83C355.84,30.27,356.03,31.43,356.03,32.66z
				 M353.38,31.81c-0.08-1.69-0.62-3.1-1.63-4.21c-1.01-1.12-2.46-1.67-4.33-1.67c-0.87,0-1.68,0.16-2.42,0.48
				c-0.74,0.32-1.4,0.76-1.96,1.31c-0.56,0.55-1.01,1.18-1.35,1.88c-0.33,0.71-0.53,1.44-0.58,2.21H353.38z"/>
		</g>
		<path class="st1" d="M20.91,9L1.82,28.09h7.82v16.59h22.54V28.09H40L20.91,9z M25.96,32.89h-4.43v-4.53h4.43V32.89z M20.29,28.36
			v4.53h-4.43v-4.53H20.29z M15.86,34.12h4.43v4.34h-4.43V34.12z M21.53,38.46v-4.34h4.43v4.34H21.53z"/>
	</g>
</g>
</svg>
